<svg width="75" height="22" viewBox="0 0 75 22" fill="none" xmlns="http://www.w3.org/2000/svg">
<path d="M72.1963 0H2.80374C1.25528 0 0 1.27093 0 2.83871V19.1613C0 20.7291 1.25528 22 2.80374 22H72.1963C73.7447 22 75 20.7291 75 19.1613V2.83871C75 1.27093 73.7447 0 72.1963 0Z" fill="#9289FF"/>
<path d="M33.7402 8.17546H31.3514V17.0322H28.4411V8.17546H26.0523V5.67172H33.7402V8.17546ZM39.9745 10.1512V9.41882H42.6661V17.0322H39.9745V16.1977C39.4586 16.9244 38.6792 17.2877 37.6362 17.2877C36.582 17.2877 35.6792 16.8846 34.9277 16.0784C34.21 15.3063 33.8511 14.3752 33.8511 13.2851C33.8511 12.0361 34.238 11.0199 35.0119 10.2364C35.7184 9.52101 36.6212 9.16334 37.7203 9.16334C38.6399 9.16334 39.3913 9.49263 39.9745 10.1512ZM38.3259 11.4797C37.8773 11.4797 37.4848 11.6444 37.1483 11.9737C36.7894 12.3257 36.61 12.7401 36.61 13.217C36.61 13.7166 36.7838 14.1311 37.1315 14.4604C37.4904 14.801 37.8941 14.9713 38.3427 14.9713C38.8025 14.9713 39.2063 14.7953 39.5539 14.4433C39.8904 14.1027 40.0586 13.6939 40.0586 13.217C40.0586 12.7288 39.8848 12.3143 39.5371 11.9737C39.1894 11.6444 38.7857 11.4797 38.3259 11.4797ZM44.049 16.402L45.0079 14.5115C45.3443 14.7613 45.7032 14.9486 46.0845 15.0735C46.4322 15.1984 46.7799 15.2609 47.1275 15.2609C47.4415 15.2609 47.6714 15.1928 47.8172 15.0565C47.907 14.9657 47.9518 14.8464 47.9518 14.6988C47.9518 14.5512 47.907 14.4377 47.8172 14.3582C47.7275 14.2673 47.492 14.1765 47.1107 14.0857L46.4042 13.9153C45.8098 13.7791 45.3724 13.5577 45.092 13.2511C44.7668 12.8991 44.6042 12.4619 44.6042 11.9396C44.6042 11.2015 44.8397 10.5827 45.3107 10.0831C45.8939 9.46992 46.7911 9.16334 48.0023 9.16334C48.8322 9.16334 49.6341 9.32798 50.4079 9.65727L49.4995 11.3946C48.9612 11.1448 48.4901 11.0199 48.0864 11.0199C47.8397 11.0199 47.6322 11.0709 47.464 11.1731C47.307 11.264 47.2285 11.3889 47.2285 11.5479C47.2285 11.7409 47.335 11.8828 47.5481 11.9737C47.6378 12.0077 47.778 12.0475 47.9686 12.0929C48.1593 12.1269 48.3163 12.161 48.4397 12.1951L48.9275 12.3313C49.4098 12.4676 49.7799 12.6663 50.0378 12.9275C50.4191 13.2908 50.6098 13.7961 50.6098 14.4433C50.6098 15.2155 50.3574 15.8457 49.8527 16.3339C49.2247 16.9698 48.2995 17.2877 47.077 17.2877C46.0116 17.2877 45.0023 16.9925 44.049 16.402ZM51.9949 4.61572H54.6865V12.161L57.2267 9.41882H60.8771L57.3276 12.9275L61.1631 17.0322H57.4285L54.6865 13.9153V17.0322H51.9949V4.61572ZM61.4136 16.402L62.3725 14.5115C62.7089 14.7613 63.0678 14.9486 63.4491 15.0735C63.7968 15.1984 64.1444 15.2609 64.4921 15.2609C64.8061 15.2609 65.036 15.1928 65.1818 15.0565C65.2716 14.9657 65.3164 14.8464 65.3164 14.6988C65.3164 14.5512 65.2716 14.4377 65.1818 14.3582C65.0921 14.2673 64.8566 14.1765 64.4753 14.0857L63.7687 13.9153C63.1744 13.7791 62.737 13.5577 62.4566 13.2511C62.1314 12.8991 61.9688 12.4619 61.9688 11.9396C61.9688 11.2015 62.2043 10.5827 62.6753 10.0831C63.2585 9.46992 64.1557 9.16334 65.3669 9.16334C66.1968 9.16334 66.9987 9.32798 67.7725 9.65727L66.8641 11.3946C66.3258 11.1448 65.8547 11.0199 65.451 11.0199C65.2043 11.0199 64.9968 11.0709 64.8286 11.1731C64.6716 11.264 64.5931 11.3889 64.5931 11.5479C64.5931 11.7409 64.6996 11.8828 64.9127 11.9737C65.0024 12.0077 65.1426 12.0475 65.3332 12.0929C65.5239 12.1269 65.6809 12.161 65.8043 12.1951L66.2921 12.3313C66.7744 12.4676 67.1444 12.6663 67.4024 12.9275C67.7837 13.2908 67.9744 13.7961 67.9744 14.4433C67.9744 15.2155 67.722 15.8457 67.2173 16.3339C66.5893 16.9698 65.6641 17.2877 64.4416 17.2877C63.3762 17.2877 62.3669 16.9925 61.4136 16.402Z" fill="white"/>
<path d="M9.69531 17.0323H6.78503V5.67175H9.69531L15.0617 12.6209V5.67175H17.9719V17.0323H15.0617L9.69531 10.0831V17.0323Z" fill="white"/>
<path d="M19.2673 17.0323H15.1963V5.67175H19.015C20.9215 5.67175 22.4075 6.19408 23.4729 7.23872C24.5159 8.2493 25.0374 9.62891 25.0374 11.3776C25.0374 13.0127 24.5496 14.3241 23.5739 15.312C23.0804 15.8116 22.4636 16.2261 21.7234 16.5554C20.9832 16.8733 20.1645 17.0323 19.2673 17.0323ZM18.1066 8.1755V14.5285H18.6954C19.7832 14.5285 20.6019 14.256 21.1514 13.711C21.7234 13.1546 22.0094 12.3768 22.0094 11.3776C22.0094 10.2761 21.7178 9.44724 21.1346 8.89085C20.6299 8.41395 19.8561 8.1755 18.8131 8.1755H18.1066Z" fill="white"/>
</svg>
